<svg width="135" height="26" viewBox="0 0 135 26" fill="none" xmlns="http://www.w3.org/2000/svg">
<path d="M14.625 18.7812C14.625 20.1354 14.2917 21.3021 13.625 22.2812C12.9688 23.2604 12.0208 24.0104 10.7812 24.5312C9.55208 25.0521 8.08333 25.3125 6.375 25.3125C5.54167 25.3125 4.74479 25.2656 3.98438 25.1719C3.22396 25.0781 2.50521 24.9427 1.82812 24.7656C1.16146 24.5781 0.552083 24.3542 0 24.0938V20.5625C0.927083 20.9688 1.96354 21.3385 3.10938 21.6719C4.25521 21.9948 5.42188 22.1562 6.60938 22.1562C7.57812 22.1562 8.38021 22.0312 9.01562 21.7812C9.66146 21.5208 10.1406 21.1562 10.4531 20.6875C10.7656 20.2083 10.9219 19.651 10.9219 19.0156C10.9219 18.3385 10.7396 17.7656 10.375 17.2969C10.0104 16.8281 9.45833 16.401 8.71875 16.0156C7.98958 15.6198 7.07292 15.1979 5.96875 14.75C5.21875 14.4479 4.5 14.1042 3.8125 13.7188C3.13542 13.3333 2.53125 12.8802 2 12.3594C1.46875 11.8385 1.04688 11.224 0.734375 10.5156C0.432292 9.79688 0.28125 8.95312 0.28125 7.98438C0.28125 6.69271 0.588542 5.58854 1.20312 4.67188C1.82812 3.75521 2.70312 3.05208 3.82812 2.5625C4.96354 2.07292 6.28646 1.82812 7.79688 1.82812C8.99479 1.82812 10.1198 1.95312 11.1719 2.20312C12.2344 2.45312 13.276 2.80729 14.2969 3.26562L13.1094 6.28125C12.1719 5.89583 11.2604 5.58854 10.375 5.35938C9.5 5.13021 8.60417 5.01562 7.6875 5.01562C6.89583 5.01562 6.22396 5.13542 5.67188 5.375C5.11979 5.61458 4.69792 5.95312 4.40625 6.39062C4.125 6.81771 3.98438 7.32812 3.98438 7.92188C3.98438 8.58854 4.14583 9.15104 4.46875 9.60938C4.80208 10.0573 5.3125 10.4688 6 10.8438C6.69792 11.2188 7.59375 11.6354 8.6875 12.0938C9.94792 12.6146 11.0156 13.1615 11.8906 13.7344C12.776 14.3073 13.4531 14.9948 13.9219 15.7969C14.3906 16.5885 14.625 17.5833 14.625 18.7812Z" fill="black"/>
<path d="M24.5869 7.375C26.1285 7.375 27.4515 7.69271 28.5556 8.32812C29.6598 8.96354 30.5088 9.86458 31.1025 11.0312C31.6963 12.1979 31.9931 13.5938 31.9931 15.2188V17.1875H20.4463C20.4879 18.8646 20.9358 20.1562 21.79 21.0625C22.6546 21.9688 23.8629 22.4219 25.415 22.4219C26.5192 22.4219 27.5088 22.3177 28.3838 22.1094C29.2692 21.8906 30.1806 21.5729 31.1181 21.1562V24.1406C30.2535 24.5469 29.3733 24.8438 28.4775 25.0312C27.5817 25.2188 26.5088 25.3125 25.2588 25.3125C23.5608 25.3125 22.066 24.9844 20.7744 24.3281C19.4931 23.6615 18.4879 22.6719 17.7588 21.3594C17.04 20.0469 16.6806 18.4167 16.6806 16.4688C16.6806 14.5312 17.0088 12.8854 17.665 11.5312C18.3213 10.1771 19.2431 9.14583 20.4306 8.4375C21.6181 7.72917 23.0035 7.375 24.5869 7.375ZM24.5869 10.1406C23.4306 10.1406 22.4931 10.5156 21.7744 11.2656C21.066 12.0156 20.6494 13.1146 20.5244 14.5625H28.3994C28.389 13.6979 28.2431 12.9323 27.9619 12.2656C27.691 11.599 27.2744 11.0781 26.7119 10.7031C26.1598 10.3281 25.4515 10.1406 24.5869 10.1406Z" fill="black"/>
<path d="M41.955 7.375C44.1425 7.375 45.7935 7.85938 46.9081 8.82812C48.0331 9.79688 48.5956 11.3073 48.5956 13.3594V25H45.9863L45.2831 22.5469H45.1581C44.6685 23.1719 44.1633 23.6875 43.6425 24.0938C43.1217 24.5 42.5175 24.8021 41.83 25C41.1529 25.2083 40.3248 25.3125 39.3456 25.3125C38.3144 25.3125 37.3925 25.125 36.58 24.75C35.7675 24.3646 35.1269 23.7812 34.6581 23C34.1894 22.2188 33.955 21.2292 33.955 20.0312C33.955 18.25 34.6165 16.9115 35.9394 16.0156C37.2727 15.1198 39.2831 14.625 41.9706 14.5312L44.9706 14.4219V13.5156C44.9706 12.3177 44.6894 11.4635 44.1269 10.9531C43.5748 10.4427 42.7935 10.1875 41.7831 10.1875C40.9185 10.1875 40.08 10.3125 39.2675 10.5625C38.455 10.8125 37.6633 11.1198 36.8925 11.4844L35.705 8.89062C36.5488 8.44271 37.5071 8.07812 38.58 7.79688C39.6633 7.51562 40.7883 7.375 41.955 7.375ZM44.955 16.7344L42.7206 16.8125C40.8873 16.875 39.6008 17.1875 38.8613 17.75C38.1217 18.3125 37.7519 19.0833 37.7519 20.0625C37.7519 20.9167 38.0071 21.5417 38.5175 21.9375C39.0279 22.3229 39.6998 22.5156 40.5331 22.5156C41.804 22.5156 42.856 22.1562 43.6894 21.4375C44.5331 20.7083 44.955 19.6406 44.955 18.2344V16.7344Z" fill="black"/>
<path d="M72.3231 7.375C74.2606 7.375 75.719 7.875 76.6981 8.875C77.6877 9.875 78.1825 11.4792 78.1825 13.6875V25H74.5106V14.3438C74.5106 13.0312 74.2554 12.0417 73.745 11.375C73.2346 10.7083 72.4585 10.375 71.4169 10.375C69.9585 10.375 68.9065 10.8438 68.2606 11.7812C67.6252 12.7083 67.3075 14.0573 67.3075 15.8281V25H63.6356V14.3438C63.6356 13.4688 63.521 12.7396 63.2919 12.1562C63.0731 11.5625 62.7346 11.1198 62.2762 10.8281C61.8179 10.526 61.2398 10.375 60.5419 10.375C59.5315 10.375 58.7242 10.6042 58.12 11.0625C57.5262 11.5208 57.0992 12.1979 56.8387 13.0938C56.5783 13.9792 56.4481 15.0677 56.4481 16.3594V25H52.7762V7.70312H55.6356L56.1512 10.0312H56.3544C56.7085 9.42708 57.146 8.93229 57.6669 8.54688C58.1981 8.15104 58.7867 7.85938 59.4325 7.67188C60.0783 7.47396 60.7502 7.375 61.4481 7.375C62.7398 7.375 63.8283 7.60417 64.7137 8.0625C65.5992 8.51042 66.2606 9.19792 66.6981 10.125H66.9794C67.521 9.1875 68.2762 8.49479 69.245 8.04688C70.2137 7.59896 71.2398 7.375 72.3231 7.375Z" fill="black"/>
<path d="M86.035 25H82.3475V0.6875H86.035V25Z" fill="black"/>
<path d="M97.2156 7.375C98.7573 7.375 100.08 7.69271 101.184 8.32812C102.289 8.96354 103.137 9.86458 103.731 11.0312C104.325 12.1979 104.622 13.5938 104.622 15.2188V17.1875H93.075C93.1167 18.8646 93.5646 20.1562 94.4187 21.0625C95.2833 21.9688 96.4917 22.4219 98.0437 22.4219C99.1479 22.4219 100.137 22.3177 101.012 22.1094C101.898 21.8906 102.809 21.5729 103.747 21.1562V24.1406C102.882 24.5469 102.002 24.8438 101.106 25.0312C100.21 25.2188 99.1375 25.3125 97.8875 25.3125C96.1896 25.3125 94.6948 24.9844 93.4031 24.3281C92.1219 23.6615 91.1167 22.6719 90.3875 21.3594C89.6687 20.0469 89.3094 18.4167 89.3094 16.4688C89.3094 14.5312 89.6375 12.8854 90.2937 11.5312C90.95 10.1771 91.8719 9.14583 93.0594 8.4375C94.2469 7.72917 95.6323 7.375 97.2156 7.375ZM97.2156 10.1406C96.0594 10.1406 95.1219 10.5156 94.4031 11.2656C93.6948 12.0156 93.2781 13.1146 93.1531 14.5625H101.028C101.018 13.6979 100.872 12.9323 100.591 12.2656C100.32 11.599 99.9031 11.0781 99.3406 10.7031C98.7885 10.3281 98.0802 10.1406 97.2156 10.1406Z" fill="black"/>
<path d="M119.427 20.0625C119.427 21.1979 119.151 22.1562 118.599 22.9375C118.047 23.7188 117.24 24.3125 116.177 24.7188C115.125 25.1146 113.834 25.3125 112.302 25.3125C111.094 25.3125 110.052 25.224 109.177 25.0469C108.313 24.8802 107.495 24.6198 106.724 24.2656V21.0938C107.547 21.4792 108.469 21.8125 109.49 22.0938C110.521 22.375 111.495 22.5156 112.412 22.5156C113.62 22.5156 114.49 22.3281 115.021 21.9531C115.552 21.5677 115.818 21.0573 115.818 20.4219C115.818 20.0469 115.709 19.7135 115.49 19.4219C115.282 19.1198 114.886 18.8125 114.302 18.5C113.73 18.1771 112.886 17.7917 111.771 17.3438C110.677 16.9062 109.756 16.4688 109.006 16.0312C108.256 15.5938 107.688 15.0677 107.302 14.4531C106.917 13.8281 106.724 13.0312 106.724 12.0625C106.724 10.5312 107.329 9.36979 108.537 8.57812C109.756 7.77604 111.365 7.375 113.365 7.375C114.427 7.375 115.427 7.48438 116.365 7.70312C117.313 7.91146 118.24 8.21875 119.146 8.625L117.99 11.3906C117.209 11.0469 116.422 10.7656 115.631 10.5469C114.849 10.3177 114.052 10.2031 113.24 10.2031C112.292 10.2031 111.568 10.349 111.068 10.6406C110.579 10.9323 110.334 11.349 110.334 11.8906C110.334 12.2969 110.454 12.6406 110.693 12.9219C110.933 13.2031 111.344 13.4844 111.927 13.7656C112.521 14.0469 113.344 14.3958 114.396 14.8125C115.427 15.2083 116.318 15.625 117.068 16.0625C117.829 16.4896 118.412 17.0156 118.818 17.6406C119.224 18.2656 119.427 19.0729 119.427 20.0625Z" fill="black"/>
<path d="M134.061 20.0625C134.061 21.1979 133.785 22.1562 133.233 22.9375C132.681 23.7188 131.874 24.3125 130.811 24.7188C129.759 25.1146 128.467 25.3125 126.936 25.3125C125.728 25.3125 124.686 25.224 123.811 25.0469C122.947 24.8802 122.129 24.6198 121.358 24.2656V21.0938C122.181 21.4792 123.103 21.8125 124.124 22.0938C125.155 22.375 126.129 22.5156 127.046 22.5156C128.254 22.5156 129.124 22.3281 129.655 21.9531C130.186 21.5677 130.452 21.0573 130.452 20.4219C130.452 20.0469 130.342 19.7135 130.124 19.4219C129.915 19.1198 129.52 18.8125 128.936 18.5C128.363 18.1771 127.52 17.7917 126.405 17.3438C125.311 16.9062 124.389 16.4688 123.639 16.0312C122.889 15.5938 122.322 15.0677 121.936 14.4531C121.551 13.8281 121.358 13.0312 121.358 12.0625C121.358 10.5312 121.962 9.36979 123.171 8.57812C124.389 7.77604 125.999 7.375 127.999 7.375C129.061 7.375 130.061 7.48438 130.999 7.70312C131.947 7.91146 132.874 8.21875 133.78 8.625L132.624 11.3906C131.842 11.0469 131.056 10.7656 130.264 10.5469C129.483 10.3177 128.686 10.2031 127.874 10.2031C126.926 10.2031 126.202 10.349 125.702 10.6406C125.212 10.9323 124.967 11.349 124.967 11.8906C124.967 12.2969 125.087 12.6406 125.327 12.9219C125.566 13.2031 125.978 13.4844 126.561 13.7656C127.155 14.0469 127.978 14.3958 129.03 14.8125C130.061 15.2083 130.952 15.625 131.702 16.0625C132.462 16.4896 133.046 17.0156 133.452 17.6406C133.858 18.2656 134.061 19.0729 134.061 20.0625Z" fill="black"/>
</svg>
