<svg width="14" height="16" viewBox="0 0 14 16" fill="none" xmlns="http://www.w3.org/2000/svg">
<path d="M11.033 8.50026C11.0558 10.9216 13.1869 11.7274 13.2105 11.7377C13.1924 11.7945 12.8699 12.8859 12.0877 14.0133C11.4115 14.988 10.7097 15.9591 9.60406 15.9792C8.51781 15.9989 8.16846 15.3439 6.92647 15.3439C5.68484 15.3439 5.29673 15.9591 4.26838 15.9989C3.20122 16.0388 2.38858 14.945 1.70679 13.9739C0.313504 11.9874 -0.751227 8.36062 0.678442 5.91247C1.38866 4.6967 2.65795 3.92687 4.03555 3.90713C5.08346 3.88743 6.07259 4.60239 6.71319 4.60239C7.35338 4.60239 8.55538 3.7426 9.81899 3.86886C10.3479 3.89059 11.8329 4.07954 12.7863 5.45593C12.7094 5.5029 11.0145 6.47598 11.033 8.50031M8.99137 2.55466C9.55798 1.87832 9.93927 0.936845 9.83524 0C9.01857 0.0323664 8.03109 0.536692 7.44529 1.21262C6.92033 1.81125 6.46059 2.76931 6.58465 3.68759C7.49493 3.75705 8.42477 3.2314 8.99137 2.55466Z" fill="black"/>
</svg>
